<svg width="14" height="14" fill="none" xmlns="http://www.w3.org/2000/svg"><path fill-rule="evenodd" clip-rule="evenodd" d="M7.0003 2.125c-2.6926 0-4.8753 2.1828-4.8753 4.8753 0 2.6925 2.1827 4.8753 4.8753 4.8753 2.6925 0 4.8752-2.1828 4.8752-4.8753 0-2.6925-2.1827-4.8752-4.8752-4.8752ZM.7917 7.0004c0-3.4289 2.7797-6.2086 6.2086-6.2086 3.4289 0 6.2085 2.7797 6.2085 6.2086 0 3.4289-2.7796 6.2086-6.2085 6.2086-3.429 0-6.2086-2.7797-6.2086-6.2086ZM7 6.3334a.6667.6667 0 0 1 .6666.6667v2.2167a.6667.6667 0 0 1-1.3333 0V7.0001a.6667.6667 0 0 1 .6667-.6667Zm0-2.2168A.6667.6667 0 0 0 7 5.45h.0058a.6667.6667 0 0 0 0-1.3334h-.0058Z" fill="#2D3440"/></svg>