<svg width="24" height="24" fill="none" xmlns="http://www.w3.org/2000/svg"><path fill-rule="evenodd" clip-rule="evenodd" d="M24 12c0 6.627-5.373 12-12 12S0 18.627 0 12 5.373 0 12 0s12 5.373 12 12Zm-9.527-5.964C13.833 6.006 13.63 6 12 6s-1.834.008-2.473.036c-.64.03-1.074.13-1.457.279-.4.15-.763.387-1.063.692-.306.3-.542.662-.692 1.063-.149.383-.249.817-.279 1.457C6.006 10.167 6 10.37 6 12s.008 1.834.036 2.473c.03.64.13 1.075.279 1.457.15.4.387.763.692 1.063.3.306.662.542 1.063.692.383.148.818.249 1.457.279.64.03.843.036 2.473.036s1.834-.008 2.473-.036c.64-.03 1.075-.13 1.457-.279.4-.15.763-.387 1.063-.692.306-.3.542-.662.692-1.063.148-.383.249-.818.279-1.457.03-.64.036-.843.036-2.473s-.008-1.834-.036-2.473c-.03-.64-.13-1.075-.279-1.457-.15-.4-.387-.763-.692-1.063a2.925 2.925 0 0 0-1.063-.692c-.383-.149-.818-.249-1.457-.279ZM9.88 9.879a3 3 0 1 1 4.242 4.243A3 3 0 0 1 9.88 9.879Zm5.801-1.56a.75.75 0 1 1-1.06 1.061.75.75 0 0 1 1.06-1.06Zm-2.407 2.408a1.8 1.8 0 1 0-2.546 2.546 1.8 1.8 0 0 0 2.546-2.546Z" fill="#FCFCFC"/></svg>