<svg width="16" height="16" fill="none" xmlns="http://www.w3.org/2000/svg"><path fill-rule="evenodd" clip-rule="evenodd" d="M9.2084.875A.6667.6667 0 0 1 9.875.2083h3a2.1666 2.1666 0 0 1 2.1667 2.1667v10.5a2.167 2.167 0 0 1-2.1667 2.1667h-3a.6667.6667 0 0 1 0-1.3334h3a.8336.8336 0 0 0 .8334-.8333v-10.5a.8333.8333 0 0 0-.8334-.8333h-3A.6667.6667 0 0 1 9.2084.875ZM5.6536 3.4036a.6667.6667 0 0 1 .9428 0l3.7454 3.7454a.6645.6645 0 0 1 .1999.476.6645.6645 0 0 1-.1999.476l-3.7454 3.7454a.6667.6667 0 1 1-.9428-.9428l2.612-2.612H.875a.6667.6667 0 0 1 0-1.3333h7.3905l-2.612-2.6119a.6667.6667 0 0 1 0-.9428Z" fill="#2D3440"/></svg>